<?xml version="1.0" standalone="no"?>
<!DOCTYPE svg PUBLIC "-//W3C//DTD SVG 20010904//EN"
 "http://www.w3.org/TR/2001/REC-SVG-20010904/DTD/svg10.dtd">
<svg version="1.0" xmlns="http://www.w3.org/2000/svg"
 width="1772.000000pt" height="1181.000000pt" viewBox="0 0 1772.000000 1181.000000"
 preserveAspectRatio="xMidYMid meet">

<g transform="translate(0.000000,1181.000000) scale(0.100000,-0.100000)"
fill="#000000" stroke="none">
<path d="M9095 10443 c-12 -49 -496 -1856 -511 -1909 l-15 -51 -75 -7 c-361
-33 -752 -174 -1071 -386 -569 -378 -945 -971 -1049 -1655 -26 -167 -26 -513
0 -680 81 -536 329 -1018 714 -1387 87 -84 255 -222 299 -246 11 -7 -36 -193
-251 -997 -146 -544 -264 -990 -263 -991 4 -4 1501 -403 1503 -401 1 1 121
445 266 987 l264 984 104 12 c145 16 262 39 398 79 815 234 1448 887 1657
1709 55 216 69 342 69 591 0 249 -14 375 -69 591 -133 523 -450 999 -878 1320
-56 42 -103 77 -105 79 -1 1 117 447 263 990 145 544 263 990 262 991 -1 1
-333 90 -737 198 -404 108 -742 199 -751 202 -12 3 -19 -4 -24 -23z m-40
-2634 c28 -5 70 -15 94 -20 43 -9 155 -71 169 -93 7 -11 13 -15 100 -66 28
-18 57 -40 62 -50 6 -10 19 -21 29 -25 11 -3 23 -14 26 -25 3 -10 30 -46 60
-80 30 -33 55 -67 55 -76 0 -8 11 -20 25 -26 14 -6 25 -16 25 -23 0 -6 12 -27
26 -46 14 -19 31 -47 38 -64 18 -42 56 -181 56 -205 0 -12 5 -30 10 -41 6 -10
12 -79 14 -153 2 -73 6 -139 10 -145 4 -7 -1 -11 -12 -11 -11 0 -35 -13 -54
-30 -19 -16 -58 -45 -88 -62 -46 -28 -56 -38 -58 -65 -3 -27 -13 -38 -67 -72
-95 -60 -98 -72 -65 -237 24 -122 41 -147 106 -156 83 -12 92 29 23 104 -40
44 -44 58 -12 38 28 -18 87 0 91 28 3 19 -1 22 -32 22 -42 0 -44 5 -14 37 25
27 46 30 55 7 3 -8 16 -20 29 -25 23 -8 24 -12 24 -123 0 -66 -4 -117 -10
-121 -5 -3 -10 -18 -10 -32 0 -46 -20 -110 -63 -203 -15 -30 -28 -63 -31 -72
-3 -11 -15 -18 -31 -18 -25 0 -37 -19 -12 -21 9 0 9 -2 -1 -6 -8 -3 -10 -9 -4
-16 6 -7 6 -21 1 -35 -7 -19 -15 -23 -41 -20 -26 2 -33 9 -43 38 l-12 35 -71
3 -71 3 -3 32 c-3 27 -9 34 -48 48 -49 18 -90 11 -90 -16 0 -19 -10 -19 -37 0
-20 14 -39 66 -34 93 4 22 -25 13 -39 -12 -17 -32 -7 -93 26 -158 14 -27 23
-52 21 -54 -2 -3 -30 -12 -61 -21 l-56 -16 -26 28 c-22 24 -30 27 -65 21 -31
-5 -39 -3 -39 9 0 8 -4 15 -9 15 -19 0 -81 -31 -81 -40 0 -6 -11 -15 -25 -20
-27 -10 -28 -14 -25 -100 2 -59 40 -140 66 -140 25 0 74 30 74 45 0 8 -8 19
-17 24 -30 17 49 13 92 -5 56 -23 178 -38 280 -34 199 8 190 9 187 -25 -2 -16
-11 -41 -19 -55 -16 -24 -16 -24 -26 -3 -8 19 -19 21 -135 25 -70 3 -137 2
-149 -3 -23 -8 -53 -56 -53 -83 0 -10 13 -16 43 -18 l42 -3 0 -41 c1 -55 20
-78 58 -70 25 5 36 0 64 -29 40 -42 38 -72 -5 -72 -86 1 -98 -7 -63 -42 18
-18 19 -20 2 -35 -10 -9 -28 -16 -40 -16 -12 0 -32 -11 -45 -25 -13 -14 -38
-28 -57 -32 -33 -6 -34 -6 -16 14 9 11 17 29 17 41 0 15 6 22 20 22 25 0 33
32 22 85 -7 36 -11 40 -38 41 -16 1 -40 -3 -53 -7 -18 -7 -21 -14 -15 -31 11
-36 13 -68 4 -68 -9 0 -14 14 -25 69 -5 21 -14 35 -26 38 -15 4 -19 14 -19 44
0 26 -4 39 -14 39 -10 0 -13 15 -12 58 1 56 1 57 -29 60 -16 2 -35 12 -42 22
-23 33 -65 6 -57 -36 2 -12 0 -26 -6 -29 -12 -8 -13 -55 -1 -55 5 0 11 -9 14
-21 3 -11 15 -23 27 -26 29 -8 22 -38 -10 -38 -14 0 -28 -4 -32 -10 -4 -6 -13
-3 -21 9 -17 24 -48 17 -64 -13 -6 -14 -19 -28 -27 -33 -9 -5 -16 -16 -16 -23
0 -20 -22 -19 -51 3 -13 10 -38 24 -54 30 -49 20 -89 57 -90 83 0 20 -6 25
-35 27 -41 4 -60 18 -60 43 0 13 9 19 33 21 24 2 32 8 32 23 0 17 -8 20 -48
23 -37 2 -52 -1 -61 -13 -11 -15 -18 -7 -59 56 -49 74 -54 109 -16 109 24 0
24 21 1 51 -27 32 -57 19 -48 -21 4 -22 2 -30 -9 -30 -9 0 -15 9 -15 21 0 17
-5 20 -32 17 -35 -3 -35 -2 -22 56 8 33 -6 46 -52 46 -20 0 -34 -6 -38 -16 -6
-16 48 -167 70 -194 6 -8 23 -38 37 -66 26 -52 41 -64 79 -64 27 0 88 -45 118
-87 14 -19 48 -50 75 -69 28 -18 79 -55 115 -80 35 -25 75 -50 89 -55 30 -12
17 -28 -24 -29 -36 -2 -139 23 -157 37 -7 6 -31 16 -53 23 -22 7 -56 26 -75
41 -19 16 -50 31 -67 35 -17 3 -34 12 -37 20 -3 8 -16 14 -29 14 -30 0 -87 19
-107 35 -8 7 -29 16 -46 19 -17 4 -41 17 -52 29 -23 25 -52 105 -52 142 0 14
-4 25 -10 25 -5 0 -10 18 -10 39 0 52 -8 71 -31 71 -16 0 -18 -7 -18 -50 1
-28 -1 -53 -4 -56 -3 -3 10 -48 29 -101 19 -52 34 -97 34 -100 0 -2 -13 -2
-29 2 -23 5 -32 2 -40 -13 -7 -14 -18 -18 -40 -14 -28 4 -29 3 -22 -24 11 -42
36 -53 62 -28 18 18 25 20 49 11 31 -12 60 3 60 29 0 16 16 19 25 5 3 -5 19
-12 35 -16 38 -8 47 -23 24 -39 -22 -17 -12 -46 17 -46 12 0 23 8 26 20 6 21
27 27 38 11 3 -5 19 -12 35 -16 41 -9 47 -24 20 -45 -15 -12 -21 -23 -17 -34
9 -24 41 -16 45 12 2 12 9 22 15 22 18 0 67 -66 67 -90 0 -15 11 -25 35 -36
44 -18 65 -18 65 0 0 19 19 31 31 19 6 -6 4 -15 -6 -23 -20 -17 -19 -59 1 -67
25 -9 49 11 49 40 1 40 8 40 45 2 24 -25 34 -45 34 -67 1 -31 3 -33 36 -34 56
-1 57 -2 82 -46 31 -54 28 -130 -5 -153 -30 -21 -43 -19 -23 4 25 27 18 75
-11 79 -17 3 -26 -3 -33 -22 -5 -14 -12 -26 -15 -26 -3 0 -17 25 -30 55 -18
40 -30 55 -45 55 -21 0 -27 15 -10 25 6 3 10 19 10 36 0 22 -5 29 -20 29 -38
0 -64 -78 -33 -98 5 -4 13 -18 16 -32 12 -55 36 -105 56 -118 24 -17 29 -67 6
-76 -8 -3 -29 0 -46 6 -23 8 -33 8 -38 -1 -13 -21 -57 4 -70 39 -9 28 -14 31
-40 25 -37 -8 -69 8 -81 41 -11 28 -16 30 -82 39 -45 6 -48 8 -48 36 0 22 -5
29 -20 30 -11 1 -23 2 -27 4 -52 14 -64 20 -77 40 -10 16 -29 25 -61 30 -40 5
-48 11 -57 36 -7 21 -16 29 -34 29 -34 0 -84 27 -111 59 -19 23 -24 25 -44 13
-13 -9 -24 -10 -28 -4 -3 5 -21 17 -39 26 -27 14 -31 20 -22 36 13 24 13 53 0
45 -6 -4 -17 -1 -25 5 -11 9 -15 9 -15 1 0 -6 -8 -15 -17 -18 -9 -4 -26 -16
-37 -27 l-21 -21 -6 30 c-4 17 -7 90 -8 163 -1 104 3 140 15 164 15 30 17 30
67 24 92 -12 97 -15 91 -46 -4 -20 -1 -29 11 -34 13 -5 15 -13 10 -37 -5 -22
-2 -36 10 -49 24 -26 16 -74 -12 -78 -25 -4 -26 -4 -17 -26 7 -18 35 -21 62
-7 9 5 25 12 35 15 23 7 22 52 -2 66 -13 6 -17 17 -14 30 5 17 11 19 38 14 46
-8 75 3 75 29 0 25 -54 67 -86 67 -29 0 -33 7 -23 43 34 122 79 322 79 347 0
17 6 41 12 53 7 12 16 60 20 107 4 47 11 105 16 130 10 56 -8 127 -49 187 -34
49 -39 84 -10 76 43 -11 33 42 -12 66 -26 14 -59 87 -72 161 -4 19 -13 45 -21
57 -18 29 -18 53 1 53 20 0 19 20 -1 34 -15 12 -22 79 -11 121 3 11 6 43 6 72
1 65 18 83 76 83 43 0 45 1 54 38 12 46 20 115 26 212 15 230 27 314 48 338 9
10 17 26 17 35 0 35 63 117 126 164 16 12 50 38 76 57 66 49 250 143 337 172
46 15 108 26 170 30 53 3 98 8 101 10 8 8 283 -6 335 -17z m741 -1353 c3 -8 4
-25 2 -37 -3 -22 -3 -22 -35 5 -18 15 -33 32 -33 37 0 15 60 10 66 -5z m-46
-76 c0 -5 7 -10 15 -10 8 0 15 -4 15 -10 0 -14 -23 -13 -38 2 -15 15 -16 28
-2 28 6 0 10 -4 10 -10z m-449 -910 c33 -17 50 -19 104 -14 42 4 65 3 65 -3 0
-40 -106 -49 -300 -23 -85 11 -156 20 -157 20 -2 0 -3 4 -3 8 0 7 41 11 167
16 17 0 35 4 39 9 13 12 43 8 85 -13z m-401 -435 c0 -3 -10 -10 -22 -15 -18
-7 -19 -9 -5 -9 9 -1 17 -7 17 -15 0 -11 9 -13 35 -9 28 5 35 2 35 -11 0 -9
-6 -19 -14 -22 -8 -3 -18 -18 -21 -34 -3 -15 -15 -36 -25 -45 -21 -19 -20 -20
-36 33 -2 9 -15 10 -42 6 -47 -7 -82 9 -82 37 0 30 41 43 59 18 15 -22 41 -25
59 -7 16 16 15 41 -1 35 -8 -3 -20 -1 -28 4 -12 8 -11 12 5 24 19 14 66 21 66
10z m82 -172 c1 -12 0 -22 -4 -23 -24 -1 -28 2 -28 23 0 45 25 44 32 0z
m-1442 -107 c33 -31 60 -47 86 -51 22 -3 53 -12 69 -20 17 -7 86 -39 155 -70
152 -69 295 -148 413 -229 49 -34 118 -77 153 -96 115 -63 164 -93 164 -101 0
-12 -39 -21 -66 -15 -13 4 -24 13 -24 21 0 10 -11 15 -34 15 -18 0 -39 6 -45
14 -6 7 -25 16 -41 20 -20 4 -34 14 -40 31 -6 15 -14 24 -19 21 -4 -3 -16 3
-26 14 -10 11 -26 20 -36 20 -10 0 -24 7 -33 15 -8 8 -21 15 -29 15 -9 0 -21
14 -29 30 -16 36 -19 37 -50 5 l-25 -25 -13 25 c-7 14 -21 27 -31 30 -10 3
-19 16 -21 28 -2 14 -11 23 -26 25 -12 2 -34 14 -49 28 -14 13 -32 24 -39 24
-7 0 -14 5 -16 11 -2 5 -22 13 -46 16 -24 3 -42 11 -42 18 0 7 -12 16 -27 20
-15 3 -31 11 -34 17 -3 5 -23 11 -43 12 -21 2 -47 13 -60 25 -12 11 -28 21
-34 21 -7 0 -12 5 -12 10 0 6 -9 10 -20 10 -10 0 -28 10 -39 21 -13 14 -27 20
-40 16 -12 -3 -24 -1 -27 4 -8 14 6 69 18 69 6 0 32 -20 58 -44z m450 -346 c0
-5 -7 -7 -15 -4 -8 4 -15 8 -15 10 0 2 7 4 15 4 8 0 15 -4 15 -10z m630 -87
c0 -19 -3 -33 -7 -31 -5 2 -27 12 -51 22 -24 10 -41 23 -39 29 4 14 45 24 75
19 18 -4 22 -11 22 -39z"/>
<path d="M7931 6966 c-2 -16 23 -76 31 -76 4 0 8 4 8 9 0 5 3 16 6 25 4 11 0
16 -14 16 -11 0 -23 8 -25 18 -3 9 -5 13 -6 8z"/>
<path d="M8130 6915 c0 -8 9 -15 20 -15 11 0 20 7 20 15 0 8 -9 15 -20 15 -11
0 -20 -7 -20 -15z"/>
<path d="M7947 6850 c-4 -16 0 -20 20 -20 18 0 24 5 21 17 -5 26 -34 28 -41 3z"/>
<path d="M8884 6819 c-8 -14 -76 -40 -99 -38 -44 3 -54 -2 -60 -31 -4 -16 -11
-30 -16 -30 -5 0 -9 -9 -9 -20 0 -30 42 -46 90 -34 24 7 44 7 55 1 10 -5 32
-7 50 -4 18 3 73 -3 121 -14 48 -10 98 -19 111 -19 13 0 31 -4 41 -9 64 -34
105 -50 144 -56 41 -6 45 -5 56 20 15 32 12 38 -33 59 -20 10 -35 24 -35 34 0
34 -121 92 -191 92 -15 0 -43 7 -62 15 -20 8 -50 15 -66 15 -16 0 -32 4 -35 9
-8 12 -55 20 -62 10z"/>
<path d="M7895 6803 c-26 -7 -55 -32 -55 -49 0 -8 13 -26 30 -40 16 -15 37
-48 47 -73 27 -74 48 -106 69 -106 29 0 28 30 -2 90 -25 49 -27 58 -16 88 29
81 7 109 -73 90z"/>
<path d="M7793 6603 c-19 -7 -16 -27 8 -41 14 -9 18 -19 14 -33 -5 -15 -2 -22
14 -26 18 -5 21 -10 15 -39 -5 -28 -2 -37 16 -52 16 -13 23 -29 22 -50 0 -23
4 -32 15 -32 12 0 14 -8 9 -37 -3 -21 -6 -44 -6 -50 0 -40 -69 8 -100 70 -17
34 -55 38 -45 5 4 -13 14 -34 23 -48 9 -14 21 -34 27 -45 6 -11 27 -29 47 -40
20 -11 50 -37 68 -57 65 -77 102 -24 44 65 l-24 37 19 28 c11 15 22 42 26 60
6 28 4 34 -14 39 -12 3 -24 16 -27 32 -14 63 -27 92 -49 109 -15 12 -20 23
-15 28 17 17 -1 52 -35 68 -18 9 -35 16 -37 15 -1 0 -9 -3 -15 -6z"/>
<path d="M8870 6544 c-69 -19 -139 -53 -151 -75 -4 -9 -27 -24 -49 -33 -22 -9
-40 -22 -40 -30 0 -27 60 -104 89 -114 15 -5 40 -22 55 -37 14 -14 39 -31 55
-36 16 -6 31 -19 34 -30 4 -16 14 -19 71 -19 37 0 83 -7 106 -16 36 -15 44
-15 73 -1 17 8 48 20 67 26 76 25 170 115 170 164 0 15 -8 17 -52 15 -45 -3
-53 -7 -68 -32 -16 -31 -45 -54 -54 -45 -3 3 -5 21 -5 40 3 173 -6 201 -72
225 -46 17 -162 16 -229 -2z m184 -151 c20 -21 36 -40 36 -44 0 -9 -99 -33
-106 -26 -3 3 -1 14 5 25 6 12 11 34 11 51 0 40 10 39 54 -6z m-200 -58 c37
-19 79 -35 91 -35 13 0 25 -7 29 -15 4 -10 20 -15 51 -15 38 0 45 -3 45 -20 0
-18 -7 -20 -86 -20 -77 0 -89 3 -122 27 -63 46 -92 76 -92 95 0 24 4 23 84
-17z"/>
<path d="M9200 6437 c0 -14 7 -28 16 -31 21 -8 23 -6 26 25 2 18 -2 25 -19 27
-19 3 -23 -1 -23 -21z"/>
<path d="M7990 6255 c0 -8 9 -15 20 -15 11 0 20 7 20 15 0 8 -9 15 -20 15 -11
0 -20 -7 -20 -15z"/>
<path d="M8076 6232 c-3 -4 -1 -25 3 -45 5 -20 6 -39 2 -42 -10 -11 -7 -95 3
-95 6 0 0 -7 -12 -16 -20 -14 -23 -22 -17 -58 10 -66 15 -76 36 -76 16 0 19 7
19 51 0 34 4 48 11 43 6 -3 15 0 20 7 12 19 11 57 -1 61 -5 2 -13 23 -16 48
-6 42 -4 47 20 58 28 12 34 40 14 60 -13 13 -74 16 -82 4z"/>
<path d="M7874 6066 c-11 -29 1 -51 29 -54 21 -3 27 1 27 17 0 33 -11 51 -31
51 -11 0 -22 -6 -25 -14z"/>
<path d="M7947 6053 c-17 -16 -6 -43 16 -43 28 0 47 17 40 36 -5 14 -44 19
-56 7z"/>
<path d="M9562 5988 c5 -15 35 -34 43 -27 3 4 3 14 -1 23 -7 18 -48 23 -42 4z"/>
<path d="M9608 5922 c-24 -5 -23 -32 1 -32 11 0 22 4 25 8 8 13 -8 28 -26 24z"/>
<path d="M7930 5905 c-8 -10 -6 -29 8 -71 20 -63 46 -89 62 -64 12 17 3 109
-11 126 -15 19 -47 23 -59 9z"/>
<path d="M9617 5814 c-11 -11 3 -24 24 -24 12 0 19 5 17 13 -5 14 -31 21 -41
11z"/>
<path d="M7990 5710 c0 -5 7 -10 15 -10 8 0 15 5 15 10 0 6 -7 10 -15 10 -8 0
-15 -4 -15 -10z"/>
<path d="M8000 5660 c0 -13 7 -20 20 -20 13 0 20 7 20 20 0 13 -7 20 -20 20
-13 0 -20 -7 -20 -20z"/>
<path d="M8091 5641 c-20 -15 -22 -21 -12 -39 7 -12 18 -22 26 -22 8 0 15 -4
15 -10 0 -5 11 -10 25 -10 18 0 25 5 25 19 0 11 -4 22 -9 25 -4 3 -6 17 -3 31
4 21 1 25 -19 25 -13 0 -35 -9 -48 -19z"/>
<path d="M8410 5405 c0 -8 9 -15 20 -15 11 0 20 7 20 15 0 8 -9 15 -20 15 -11
0 -20 -7 -20 -15z"/>
<path d="M8450 5330 c0 -22 1 -23 24 -14 23 9 20 34 -4 34 -13 0 -20 -7 -20
-20z"/>
<path d="M8644 5269 c-3 -6 3 -24 15 -39 12 -17 17 -31 11 -35 -6 -3 -10 -15
-10 -26 0 -15 6 -20 21 -17 28 4 44 30 34 54 -4 11 -7 25 -6 32 5 32 -48 57
-65 31z"/>
<path d="M8550 5245 c0 -8 6 -15 14 -15 8 0 16 7 20 15 4 10 -1 15 -14 15 -11
0 -20 -7 -20 -15z"/>
<path d="M7580 5140 c0 -13 7 -20 19 -20 10 0 21 9 24 20 4 16 0 20 -19 20
-17 0 -24 -6 -24 -20z"/>
<path d="M8570 5091 c0 -26 18 -38 68 -46 35 -6 42 -4 42 9 0 9 -5 16 -11 16
-6 0 -22 9 -36 20 -33 26 -63 26 -63 1z"/>
<path d="M7514 5085 c-3 -8 -3 -18 0 -24 8 -13 46 -2 46 14 0 18 -40 27 -46
10z"/>
<path d="M7480 5020 c0 -5 7 -10 15 -10 8 0 15 5 15 10 0 6 -7 10 -15 10 -8 0
-15 -4 -15 -10z"/>
<path d="M7543 5014 c-3 -8 -1 -20 5 -26 16 -16 42 -2 42 22 0 24 -38 28 -47
4z"/>
<path d="M7940 4991 c-14 -43 -9 -71 13 -71 49 0 54 109 6 110 -3 0 -12 -18
-19 -39z"/>
<path d="M7827 4948 c-7 -21 12 -48 34 -48 30 0 23 54 -7 58 -12 2 -24 -3 -27
-10z"/>
<path d="M7730 4915 c-14 -37 -14 -37 23 -33 27 2 32 7 32 28 0 37 -41 41 -55
5z"/>
<path d="M7996 4921 c-3 -5 5 -11 19 -13 17 -4 25 -1 25 8 0 15 -36 19 -44 5z"/>
<path d="M8058 4909 c-25 -14 -22 -38 7 -51 28 -13 55 3 55 32 0 27 -32 37
-62 19z"/>
<path d="M7635 4900 c-3 -5 -1 -20 5 -35 13 -35 55 -32 55 4 0 18 -7 26 -27
32 -16 4 -30 4 -33 -1z"/>
<path d="M7968 4878 c-21 -21 -20 -36 4 -51 26 -17 48 -1 48 36 0 39 -22 45
-52 15z"/>
<path d="M7872 4838 c2 -15 10 -23 23 -23 30 0 27 39 -3 43 -20 3 -23 0 -20
-20z"/>
<path d="M8194 4825 c-9 -21 14 -45 42 -45 26 0 30 11 14 41 -13 23 -48 25
-56 4z"/>
<path d="M7776 4813 c-4 -9 0 -23 8 -31 12 -13 18 -13 30 -2 9 7 16 21 16 31
0 24 -45 26 -54 2z"/>
<path d="M8083 4813 c-22 -8 -14 -43 12 -55 43 -20 77 29 36 52 -21 11 -29 11
-48 3z"/>
<path d="M7994 4776 c-10 -26 4 -48 28 -44 17 2 23 10 23 28 0 18 -6 26 -23
28 -13 2 -25 -3 -28 -12z"/>
<path d="M8330 4750 c0 -13 7 -20 20 -20 13 0 20 7 20 20 0 13 -7 20 -20 20
-13 0 -20 -7 -20 -20z"/>
<path d="M7912 4743 c2 -10 12 -18 23 -18 11 0 21 8 23 18 3 13 -3 17 -23 17
-20 0 -26 -4 -23 -17z"/>
<path d="M8222 4738 c-27 -27 5 -73 38 -53 16 10 12 52 -6 59 -20 8 -18 8 -32
-6z"/>
<path d="M8116 4704 c-9 -25 16 -48 43 -39 16 5 21 13 19 28 -4 28 -52 36 -62
11z"/>
<path d="M8032 4663 c2 -22 8 -28 28 -28 20 0 25 5 25 25 0 20 -6 26 -28 28
-26 3 -28 1 -25 -25z"/>
<path d="M8330 4656 c0 -25 30 -43 50 -31 16 10 12 42 -6 49 -31 12 -44 6 -44
-18z"/>
<path d="M8253 4653 c-15 -5 -18 -53 -4 -53 5 0 17 -7 25 -16 9 -8 16 -11 16
-5 0 6 6 11 14 11 18 0 10 40 -12 58 -17 13 -20 13 -39 5z"/>
<path d="M8567 4634 c-15 -15 -7 -53 13 -59 27 -8 52 12 48 39 -3 21 -46 35
-61 20z"/>
<path d="M8164 4605 c-4 -9 -2 -21 4 -27 15 -15 44 -1 40 19 -4 23 -36 29 -44
8z"/>
<path d="M8374 4576 c-10 -26 1 -51 23 -54 28 -4 50 32 32 54 -15 18 -48 18
-55 0z"/>
<path d="M8285 4541 c-8 -27 1 -41 26 -41 16 0 20 6 17 27 -4 34 -33 43 -43
14z"/>
<path d="M8414 4465 c-4 -9 -2 -21 4 -27 15 -15 44 -1 40 19 -4 23 -36 29 -44
8z"/>
<path d="M4270 8157 l-1715 -1003 0 -1014 0 -1014 1715 -1003 c943 -551 1718
-1002 1723 -1003 4 0 6 444 5 987 l-3 987 -892 521 c-491 286 -892 522 -892
525 0 3 401 239 892 526 l892 520 3 987 c1 543 -1 987 -5 987 -5 -1 -780 -452
-1723 -1003z m14 -2111 l1676 -979 0 -940 c0 -547 -4 -937 -9 -935 -5 2 -763
444 -1685 982 l-1676 980 0 939 c0 552 4 937 9 935 5 -1 763 -444 1685 -982z"/>
<path d="M11452 8173 l3 -987 892 -521 c491 -286 892 -522 892 -525 0 -3 -401
-239 -892 -526 l-892 -520 -3 -987 c-1 -543 1 -987 5 -987 5 1 780 452 1723
1003 l1715 1003 0 1014 0 1014 -1715 1003 c-943 551 -1718 1002 -1723 1003 -4
0 -6 -444 -5 -987z m1732 -67 l1676 -980 0 -939 c0 -552 -4 -937 -9 -935 -5 2
-763 444 -1685 982 l-1676 979 0 940 c0 547 4 937 9 935 5 -1 763 -444 1685
-982z"/>
</g>
</svg>
